HIERARCHY
ROOT Hips
{
  OFFSET -283.628 73.0035 831.539
  CHANNELS 6 Xposition Yposition Zposition Zrotation Xrotation Yrotation
  JOINT Spine
  {
    OFFSET -1.99e-05 8 -2.469e-05
    CHANNELS 6 Xposition Yposition Zposition Zrotation Xrotation Yrotation
    JOINT Spine1
    {
      OFFSET 0 8 0
      CHANNELS 6 Xposition Yposition Zposition Zrotation Xrotation Yrotation
      JOINT Spine2
      {
        OFFSET 1.05306e-05 8 0
        CHANNELS 6 Xposition Yposition Zposition Zrotation Xrotation Yrotation
        JOINT Spine3
        {
          OFFSET 0 8 0
          CHANNELS 6 Xposition Yposition Zposition Zrotation Xrotation Yrotation
          JOINT Neck
          {
            OFFSET 0.000223003 17 0.000305771
            CHANNELS 6 Xposition Yposition Zposition Zrotation Xrotation Yrotation
            JOINT Head
            {
              OFFSET 0 10.8 0
              CHANNELS 6 Xposition Yposition Zposition Zrotation Xrotation Yrotation
              End Site
              {
                OFFSET 0 20.25 0
              }
            }
          }
          JOINT LeftShoulder
          {
            OFFSET 5.00022 16.9999 0.000179488
            CHANNELS 6 Xposition Yposition Zposition Zrotation Xrotation Yrotation
            JOINT LeftShoulder2
            {
              OFFSET 6.45 0 0
              CHANNELS 6 Xposition Yposition Zposition Zrotation Xrotation Yrotation
              JOINT LeftArm
              {
                OFFSET 6.45 -0.00019475 1.53452e-05
                CHANNELS 6 Xposition Yposition Zposition Zrotation Xrotation Yrotation
                JOINT LeftForeArm
                {
                  OFFSET 0 -32.4 -1.99998
                  CHANNELS 6 Xposition Yposition Zposition Zrotation Xrotation Yrotation
                  JOINT LeftHand
                  {
                    OFFSET 2.97833e-05 -25.65 1.99998
                    CHANNELS 6 Xposition Yposition Zposition Zrotation Xrotation Yrotation
                    JOINT LeftHandThumb1
                    {
                      OFFSET -0.499992 -1.50006 2.65003
                      CHANNELS 6 Xposition Yposition Zposition Zrotation Xrotation Yrotation
                      JOINT LeftHandThumb2
                      {
                        OFFSET -1.28383e-05 -3.79998 3.70001
                        CHANNELS 6 Xposition Yposition Zposition Zrotation Xrotation Yrotation
                        JOINT LeftHandThumb3
                        {
                          OFFSET 0 -3 2.69999
                          CHANNELS 6 Xposition Yposition Zposition Zrotation Xrotation Yrotation
                          End Site
                          {
                            OFFSET -2.67692e-05 -2.3 1.79997
                          }
                        }
                      }
                    }
                    JOINT LeftHandIndex
                    {
                      OFFSET 0 -1.9 1.60002
                      CHANNELS 6 Xposition Yposition Zposition Zrotation Xrotation Yrotation
                      JOINT LeftHandIndex1
                      {
                        OFFSET -1.04722e-05 -8.30004 1.9
                        CHANNELS 6 Xposition Yposition Zposition Zrotation Xrotation Yrotation
                        JOINT LeftHandIndex2
                        {
                          OFFSET 6.10037e-05 -4.50002 0
                          CHANNELS 6 Xposition Yposition Zposition Zrotation Xrotation Yrotation
                          JOINT LeftHandIndex3
                          {
                            OFFSET -2.62768e-05 -3.39997 -1.94103e-05
                            CHANNELS 6 Xposition Yposition Zposition Zrotation Xrotation Yrotation
                            End Site
                            {
                              OFFSET 0 -2.6 0
                            }
                          }
                        }
                      }
                    }
                    JOINT LeftHandMiddle
                    {
                      OFFSET -0.249996 -2.20004 0.400026
                      CHANNELS 6 Xposition Yposition Zposition Zrotation Xrotation Yrotation
                      JOINT LeftHandMiddle1
                      {
                        OFFSET 0 -8.29999 0.999991
                        CHANNELS 6 Xposition Yposition Zposition Zrotation Xrotation Yrotation
                        JOINT LeftHandMiddle2
                        {
                          OFFSET 0 -4.64999 0
                          CHANNELS 6 Xposition Yposition Zposition Zrotation Xrotation Yrotation
                          JOINT LeftHandMiddle3
                          {
                            OFFSET 0 -3.30001 0
                            CHANNELS 6 Xposition Yposition Zposition Zrotation Xrotation Yrotation
                            End Site
                            {
                              OFFSET -4.88408e-05 -2.69999 0
                            }
                          }
                        }
                      }
                    }
                    JOINT LeftHandRing
                    {
                      OFFSET -0.499993 -2.15005 -0.799962
                      CHANNELS 6 Xposition Yposition Zposition Zrotation Xrotation Yrotation
                      JOINT LeftHandRing1
                      {
                        OFFSET -1.31948e-05 -7.75001 -0.200011
                        CHANNELS 6 Xposition Yposition Zposition Zrotation Xrotation Yrotation
                        JOINT LeftHandRing2
                        {
                          OFFSET 0 -3.79999 0
                          CHANNELS 6 Xposition Yposition Zposition Zrotation Xrotation Yrotation
                          JOINT LeftHandRing3
                          {
                            OFFSET 0 -3.4 0
                            CHANNELS 6 Xposition Yposition Zposition Zrotation Xrotation Yrotation
                            End Site
                            {
                              OFFSET 1.38154e-05 -2.6 -1.38879e-05
                            }
                          }
                        }
                      }
                    }
                    JOINT LeftHandPinky
                    {
                      OFFSET -0.749994 -1.75001 -1.84999
                      CHANNELS 6 Xposition Yposition Zposition Zrotation Xrotation Yrotation
                      JOINT LeftHandPinky1
                      {
                        OFFSET -1.17845e-05 -7.15004 -1
                        CHANNELS 6 Xposition Yposition Zposition Zrotation Xrotation Yrotation
                        JOINT LeftHandPinky2
                        {
                          OFFSET 0 -2.99998 -2.79084e-05
                          CHANNELS 6 Xposition Yposition Zposition Zrotation Xrotation Yrotation
                          JOINT LeftHandPinky3
                          {
                            OFFSET 2.77592e-05 -2.35001 1.80082e-05
                            CHANNELS 6 Xposition Yposition Zposition Zrotation Xrotation Yrotation
                            End Site
                            {
                              OFFSET 0 -2.10001 -2.55586e-05
                            }
                          }
                        }
                      }
                    }
                  }
                }
              }
            }
          }
          JOINT RightShoulder
          {
            OFFSET -4.99977 17.0001 0.000429946
            CHANNELS 6 Xposition Yposition Zposition Zrotation Xrotation Yrotation
            JOINT RightShoulder2
            {
              OFFSET -6.45 0 0
              CHANNELS 6 Xposition Yposition Zposition Zrotation Xrotation Yrotation
              JOINT RightArm
              {
                OFFSET -6.45001 0.000240246 -0.000106388
                CHANNELS 6 Xposition Yposition Zposition Zrotation Xrotation Yrotation
                JOINT RightForeArm
                {
                  OFFSET 0 -32.4 -1.99998
                  CHANNELS 6 Xposition Yposition Zposition Zrotation Xrotation Yrotation
                  JOINT RightHand
                  {
                    OFFSET 0 -25.65 1.99998
                    CHANNELS 6 Xposition Yposition Zposition Zrotation Xrotation Yrotation
                    JOINT RightHandThumb1
                    {
                      OFFSET 0.499985 -1.5 2.65
                      CHANNELS 6 Xposition Yposition Zposition Zrotation Xrotation Yrotation
                      JOINT RightHandThumb2
                      {
                        OFFSET 2.29336e-05 -3.80001 3.69999
                        CHANNELS 6 Xposition Yposition Zposition Zrotation Xrotation Yrotation
                        JOINT RightHandThumb3
                        {
                          OFFSET 0 -3 2.7
                          CHANNELS 6 Xposition Yposition Zposition Zrotation Xrotation Yrotation
                          End Site
                          {
                            OFFSET -1.21801e-05 -2.29999 1.8
                          }
                        }
                      }
                    }
                    JOINT RightHandIndex
                    {
                      OFFSET 1.11565e-05 -1.90002 1.6
                      CHANNELS 6 Xposition Yposition Zposition Zrotation Xrotation Yrotation
                      JOINT RightHandIndex1
                      {
                        OFFSET 0 -8.29999 1.9
                        CHANNELS 6 Xposition Yposition Zposition Zrotation Xrotation Yrotation
                        JOINT RightHandIndex2
                        {
                          OFFSET 0 -4.50001 0
                          CHANNELS 6 Xposition Yposition Zposition Zrotation Xrotation Yrotation
                          JOINT RightHandIndex3
                          {
                            OFFSET 5.84181e-05 -3.39999 0
                            CHANNELS 6 Xposition Yposition Zposition Zrotation Xrotation Yrotation
                            End Site
                            {
                              OFFSET -1.10425e-05 -2.59998 0
                            }
                          }
                        }
                      }
                    }
                    JOINT RightHandMiddle
                    {
                      OFFSET 0.250008 -2.20002 0.400005
                      CHANNELS 6 Xposition Yposition Zposition Zrotation Xrotation Yrotation
                      JOINT RightHandMiddle1
                      {
                        OFFSET 1.37714e-05 -8.30001 0.999991
                        CHANNELS 6 Xposition Yposition Zposition Zrotation Xrotation Yrotation
                        JOINT RightHandMiddle2
                        {
                          OFFSET -6.59879e-05 -4.64996 0
                          CHANNELS 6 Xposition Yposition Zposition Zrotation Xrotation Yrotation
                          JOINT RightHandMiddle3
                          {
                            OFFSET 3.49697e-05 -3.30003 0
                            CHANNELS 6 Xposition Yposition Zposition Zrotation Xrotation Yrotation
                            End Site
                            {
                              OFFSET 0 -2.69997 1.05712e-05
                            }
                          }
                        }
                      }
                    }
                    JOINT RightHandRing
                    {
                      OFFSET 0.500001 -2.15001 -0.799999
                      CHANNELS 6 Xposition Yposition Zposition Zrotation Xrotation Yrotation
                      JOINT RightHandRing1
                      {
                        OFFSET 1.43519e-05 -7.75001 -0.200002
                        CHANNELS 6 Xposition Yposition Zposition Zrotation Xrotation Yrotation
                        JOINT RightHandRing2
                        {
                          OFFSET 0 -3.79999 0
                          CHANNELS 6 Xposition Yposition Zposition Zrotation Xrotation Yrotation
                          JOINT RightHandRing3
                          {
                            OFFSET 0 -3.40003 0
                            CHANNELS 6 Xposition Yposition Zposition Zrotation Xrotation Yrotation
                            End Site
                            {
                              OFFSET 0 -2.59999 0
                            }
                          }
                        }
                      }
                    }
                    JOINT RightHandPinky
                    {
                      OFFSET 0.750021 -1.75003 -1.85
                      CHANNELS 6 Xposition Yposition Zposition Zrotation Xrotation Yrotation
                      JOINT RightHandPinky1
                      {
                        OFFSET 0 -7.14999 -0.999997
                        CHANNELS 6 Xposition Yposition Zposition Zrotation Xrotation Yrotation
                        JOINT RightHandPinky2
                        {
                          OFFSET 0 -3 0
                          CHANNELS 6 Xposition Yposition Zposition Zrotation Xrotation Yrotation
                          JOINT RightHandPinky3
                          {
                            OFFSET 0 -2.34999 0
                            CHANNELS 6 Xposition Yposition Zposition Zrotation Xrotation Yrotation
                            End Site
                            {
                              OFFSET 0 -2.09994 -3.93007e-05
                            }
                          }
                        }
                      }
                    }
                  }
                }
              }
            }
          }
        }
      }
    }
  }
  JOINT LeftUpLeg
  {
    OFFSET 7.99999 0 0
    CHANNELS 6 Xposition Yposition Zposition Zrotation Xrotation Yrotation
    JOINT LeftLeg
    {
      OFFSET 1.89445e-05 -45 -1.00003
      CHANNELS 6 Xposition Yposition Zposition Zrotation Xrotation Yrotation
      JOINT LeftFoot
      {
        OFFSET -1.56508e-05 -41 -2
        CHANNELS 6 Xposition Yposition Zposition Zrotation Xrotation Yrotation
        JOINT LeftToeBase
        {
          OFFSET 0 -7.50001 12.5
          CHANNELS 6 Xposition Yposition Zposition Zrotation Xrotation Yrotation
          JOINT LeftFootToe
          {
            OFFSET 0 0 4
            CHANNELS 6 Xposition Yposition Zposition Zrotation Xrotation Yrotation
            End Site
            {
              OFFSET 0 0 0
            }
          }
        }
      }
    }
  }
  JOINT RightUpLeg
  {
    OFFSET -7.99999 0 0
    CHANNELS 6 Xposition Yposition Zposition Zrotation Xrotation Yrotation
    JOINT RightLeg
    {
      OFFSET -1.1216e-05 -45 -1.00001
      CHANNELS 6 Xposition Yposition Zposition Zrotation Xrotation Yrotation
      JOINT RightFoot
      {
        OFFSET -2.1011e-05 -41 -1.99997
        CHANNELS 6 Xposition Yposition Zposition Zrotation Xrotation Yrotation
        JOINT RightToeBase
        {
          OFFSET 1.85284e-05 -7.5 12.5
          CHANNELS 6 Xposition Yposition Zposition Zrotation Xrotation Yrotation
          JOINT RightFootToe
          {
            OFFSET 0 0 4
            CHANNELS 6 Xposition Yposition Zposition Zrotation Xrotation Yrotation
            End Site
            {
              OFFSET 0 0 0
            }
          }
        }
      }
    }
  }
}
MOTION
Frames:	3
Frame Time:	0.0111111
-289.835 81.9659 824.938 1.56252 0.0768205 -174.033 0 8 -1.13687e-13 2.89004 20.1662 -2.35062 0 8 1.13687e-13 1.79058 6.42261 -0.699628 0 8 -1.13687e-13 0.884848 3.2166 -0.324536 -5.68434e-14 8 0 0.886459 3.20883 -0.328786 5.68434e-14 17 -1.13687e-13 4.88614 -1.44854 -13.9351 5.68434e-14 10.8 0 10.7207 -5.21993 -32.6954 5 17 0 3.89714 -2.1119 -8.1918 6.45 0 -1.13687e-13 -0.269319 -0.391005 2.14259 6.45 -5.68434e-14 1.13687e-13 66.5676 -0.119456 12.0756 0 -32.4 -2 -127.422 -85.801 -120.344 2.84217e-14 -25.65 2 -7.38261 -7.738 -42.8215 -0.5 -1.5 2.65 -9.79391 -6.4577 -10.7125 -5.68434e-14 -3.8 3.7 -1.22929 43.7373 0.233755 0 -3 2.7 -0.255737 -6.22169 0.20108 0 -1.9 1.6 -2.78932e-06 -1.08876e-06 3.78155e-06 5.68434e-14 -8.3 1.9 -24.4846 7.08493 1.89719 0 -4.5 0 -23.2586 -0.0128902 0.0280019 0 -3.4 -5.68434e-14 -17.8116 -0.0120353 0.00484142 -0.25 -2.2 0.4 -2.78932e-06 -1.08876e-06 3.78155e-06 0 -8.3 1 -30.6068 11.8506 4.70881 0 -4.65 0 -15.1813 -0.00504177 -0.00592346 0 -3.3 0 -12.4274 -0.000328567 -0.00217642 -0.5 -2.15 -0.8 -2.78932e-06 -1.08876e-06 3.78155e-06 0 -7.75 -0.2 -62.1759 10.4489 11.2943 1.13687e-13 -3.8 2.84217e-14 -69.3231 -0.0622914 -0.0314359 0 -3.4 0 -51.5856 -0.0148642 -0.0714684 -0.75 -1.75 -1.85 -2.78932e-06 -1.08876e-06 3.78155e-06 0 -7.15 -1 -79.0295 13.0709 20.4752 0 -3 -5.68434e-14 -0.0297776 -0.00101684 0.00361537 -1.13687e-13 -2.35 -5.68434e-14 -2.26816e-05 -0.000965881 0.00163572 -5 17 0 10.3739 -7.12828 -5.81279 -6.45 0 0 -1.48979 -0.0161952 -4.95282 -6.45 5.68434e-14 0 -27.6928 9.76456 -35.4155 0 -32.4 -2 -5.98105 -21.4344 -23.9687 -1.13687e-13 -25.65 2 -15.1274 -6.14762 -28.9449 0.5 -1.5 2.65 14.9186 -17.1185 20.2855 1.13687e-13 -3.8 3.7 0.189511 16.5869 -0.0745757 -1.13687e-13 -3 2.7 0.0178956 13.2921 -0.0133436 1.13687e-13 -1.9 1.6 4.41391e-31 -7.95139e-15 3.18055e-15 0 -8.3 1.9 1.32755 -9.63064 0.0601021 -1.13687e-13 -4.5 0 3.06468 0.0186334 0.0784265 1.13687e-13 -3.4 0 -6.99262e-06 0.00820752 0.0700917 0.25 -2.2 0.4 4.41391e-31 -7.95139e-15 3.18055e-15 0 -8.3 1 12.6937 -13.2 0.446675 1.13687e-13 -4.65 5.68434e-14 4.92503 -0.000310553 0.0185275 1.13687e-13 -3.3 5.68434e-14 1.67118 5.71515e-05 0.0162086 0.5 -2.15 -0.8 4.41391e-31 -7.95139e-15 3.18055e-15 0 -7.75 -0.2 30.6465 -14.1435 1.27794 -1.13687e-13 -3.8 5.68434e-14 1.57327 0.0314126 0.0038933 0 -3.4 -1.13687e-13 1.38717 0.00382753 3.15063e-05 0.75 -1.75 -1.85 4.41391e-31 -7.95139e-15 3.18055e-15 0 -7.15 -1 50.2326 -20.5382 5.29731 -1.13687e-13 -3 0 0.00297411 0.0681534 -0.0607677 1.13687e-13 -2.35 0 1.018e-05 0.0677904 -0.0086237 8 0 -1.13687e-13 25.0411 -44.2596 33.7203 0 -45 -1 2.2401 46.5058 -10.0355 0 -41 -2 -4.59132 2.12662 -12.7885 0 -7.5 12.5 7.19216e-08 1.38483e-06 4.29848e-08 0 -7.10543e-15 4 1.77208 -0.217041 -8.17133 -8 1.42109e-14 -1.13687e-13 1.34108 -41.4618 2.14011 0 -45 -1 0.865196 67.5218 -1.54679 0 -41 -2 -3.95874 -3.00823 20.8216 0 -7.5 12.5 1.49891e-07 -23.519 2.18044e-06 1.13687e-13 -7.10543e-15 4 7.22573 23.0542 0.395683 
-288.951 81.4085 825.732 1.52509 0.140412 -172.785 5.68434e-14 8 -1.13687e-13 2.93528 19.8671 -2.4847 -5.68434e-14 8 0 1.77938 6.48597 -0.797175 0 8 0 0.877767 3.24877 -0.373177 5.68434e-14 8 0 0.876366 3.24304 -0.372858 5.68434e-14 17 0 4.90606 -1.48747 -13.9945 -2.84217e-14 10.8 1.13687e-13 10.7482 -5.32503 -32.8349 5 17 0 4.00357 -2.06889 -8.0116 6.45 0 0 -0.31592 -0.395596 2.15075 6.45 -5.68434e-14 0 68.3868 -1.99125 11.7278 0 -32.4 -2 -115.251 -87.094 -107.48 5.68434e-14 -25.65 2 -8.53066 -7.70982 -42.2915 -0.5 -1.5 2.65 -7.5856 -8.8453 -9.52715 5.68434e-14 -3.8 3.7 -1.09596 45.3943 0.261831 0 -3 2.7 -0.264599 -4.87341 0.156505 0 -1.9 1.6 -2.78932e-06 -1.08876e-06 3.78155e-06 0 -8.3 1.9 -25.3635 7.34668 2.02242 0 -4.5 -5.68434e-14 -21.0245 0.00527399 0.0282216 -1.13687e-13 -3.4 5.68434e-14 -16.3647 -0.000882298 0.00484142 -0.25 -2.2 0.4 -2.78932e-06 -1.08876e-06 3.78155e-06 -5.68434e-14 -8.3 1 -31.1881 12.3702 4.92582 0 -4.65 0 -13.4819 0.00275339 -0.00592346 0 -3.3 0 -11.1763 0.00408961 -0.00217642 -0.5 -2.15 -0.8 -2.78932e-06 -1.08876e-06 3.78155e-06 0 -7.75 -0.2 -62.5493 10.3007 11.2796 -1.13687e-13 -3.8 5.68434e-14 -67.642 -0.0842488 -0.0312994 -5.68434e-14 -3.4 5.68434e-14 -49.8204 -0.0307415 -0.0872041 -0.75 -1.75 -1.85 -2.78932e-06 -1.08876e-06 3.78155e-06 -5.68434e-14 -7.15 -1 -79.3061 12.7754 20.3627 0 -3 0 -0.0297776 -0.00101684 0.00361537 0 -2.35 -5.68434e-14 -2.26816e-05 -0.000965881 0.00163572 -5 17 0 10.5024 -7.29545 -5.81757 -6.45 -5.68434e-14 0 -1.52575 0.0694011 -5.04843 -6.45 5.68434e-14 -1.13687e-13 -28.1908 9.38463 -35.3898 0 -32.4 -2 -5.54433 -19.9945 -24.2516 0 -25.65 2 -14.677 -5.96081 -29.1153 0.5 -1.5 2.65 14.7398 -17.0893 20.4591 0 -3.8 3.7 0.175684 16.2994 -0.0709651 1.13687e-13 -3 2.7 0.0177347 12.6175 -0.0133075 0 -1.9 1.6 3.97252e-31 -4.77083e-15 4.77083e-15 -1.13687e-13 -8.3 1.9 1.3715 -9.79189 0.0601311 0 -4.5 -5.68434e-14 3.06468 0.0186334 0.0784265 0 -3.4 0 -6.99262e-06 0.00820752 0.0700917 0.25 -2.2 0.4 3.97252e-31 -4.77083e-15 4.77083e-15 1.13687e-13 -8.3 1 12.3681 -13.4629 0.463474 -1.13687e-13 -4.65 -5.68434e-14 4.36831 -0.000310553 0.00728148 0 -3.3 5.68434e-14 0.606385 5.71515e-05 0.00642983 0.5 -2.15 -0.8 3.97252e-31 -4.77083e-15 4.77083e-15 -2.27374e-13 -7.75 -0.2 29.8111 -14.6478 1.37295 0 -3.8 -5.68434e-14 0.471742 0.0314126 0.0038933 -1.13687e-13 -3.4 5.68434e-14 0.41419 0.00382753 3.15063e-05 0.75 -1.75 -1.85 3.97252e-31 -4.77083e-15 4.77083e-15 0 -7.15 -1 48.6742 -21.1886 5.4112 1.13687e-13 -3 0 0.00297411 0.0681534 -0.0607677 1.13687e-13 -2.35 0 1.018e-05 0.0677904 -0.0086237 8 0 1.13687e-13 25.4657 -45.027 34.5665 0 -45 -1 2.19864 46.1852 -9.99973 0 -41 -2 -4.50057 3.04271 -12.826 -5.68434e-14 -7.5 12.5 7.19216e-08 1.38483e-06 4.29848e-08 0 0 4 1.783 -0.216552 -8.17132 -8 1.42109e-14 -1.13687e-13 1.89348 -42.5849 2.60734 0 -45 -1 1.10152 68.6315 -1.83583 0 -41 -2 -3.97401 -2.86065 20.4962 0 -7.5 12.5 1.50315e-07 -23.5292 2.18061e-06 0 0 4 7.20223 23.0802 0.416204 
-288.131 80.8148 826.517 1.49633 0.187754 -171.777 -1.13687e-13 8 0 2.95128 19.5351 -2.52143 5.68434e-14 8 -1.13687e-13 1.75193 6.56678 -0.884828 0 8 1.13687e-13 0.862641 3.28959 -0.417056 0 8 -1.13687e-13 0.861803 3.28348 -0.41605 -5.68434e-14 17 0 4.91476 -1.53271 -14.0308 0 10.8 0 10.7488 -5.43733 -32.919 5 17 1.13687e-13 4.09249 -2.05905 -7.80851 6.45 1.13687e-13 -1.13687e-13 -0.355809 -0.394623 2.14843 6.45 -5.68434e-14 0 70.0826 -3.69764 11.422 -2.84217e-14 -32.4 -2 -86.896 -88.1115 -78.5429 0 -25.65 2 -9.59197 -7.67877 -41.661 -0.5 -1.5 2.65 -5.45268 -10.886 -8.14312 -1.13687e-13 -3.8 3.7 -0.901062 46.7373 0.236025 0 -3 2.7 -0.235286 -3.65633 0.11435 -5.68434e-14 -1.9 1.6 -2.78932e-06 -1.08876e-06 3.78155e-06 -5.68434e-14 -8.3 1.9 -26.5888 7.60821 2.20397 0 -4.5 5.68434e-14 -19.1849 0.0145059 0.0242408 1.13687e-13 -3.4 0 -15.179 0.00545881 0.00481304 -0.25 -2.2 0.4 -2.78932e-06 -1.08876e-06 3.78155e-06 -5.68434e-14 -8.3 1 -31.9575 12.7446 5.13126 0 -4.65 -2.84217e-14 -11.8345 0.00760301 -0.0055789 0 -3.3 0 -9.96737 0.00686923 -0.00212305 -0.5 -2.15 -0.8 -2.78932e-06 -1.08876e-06 3.78155e-06 0 -7.75 -0.2 -62.8319 10.0026 11.1078 1.13687e-13 -3.8 -5.68434e-14 -65.9159 -0.08694 -0.0241864 -5.68434e-14 -3.4 5.68434e-14 -48.0222 -0.0385086 -0.0830182 -0.75 -1.75 -1.85 -2.78932e-06 -1.08876e-06 3.78155e-06 -5.68434e-14 -7.15 -1 -79.2745 12.65 20.2196 0 -3 0 -0.0297776 -0.00101684 0.00361537 -1.13687e-13 -2.35 5.68434e-14 -2.26816e-05 -0.000965881 0.00163572 -5 17 0 10.6257 -7.46436 -5.82497 -6.45 0 1.13687e-13 -1.57485 0.156592 -5.13516 -6.45 0 0 -28.6879 8.9557 -35.2906 0 -32.4 -2 -5.14104 -18.6771 -24.533 0 -25.65 2 -14.2893 -5.7753 -29.2627 0.5 -1.5 2.65 14.5751 -17.0526 20.6064 0 -3.8 3.7 0.161897 16.0254 -0.0669487 1.13687e-13 -3 2.7 0.0170155 11.8899 -0.0132708 0 -1.9 1.6 -3.18055e-15 -6.36111e-15 -1.59028e-15 0 -8.3 1.9 1.40351 -9.90843 0.0601523 0 -4.5 5.68434e-14 3.06468 0.0186334 0.0784265 1.13687e-13 -3.4 5.68434e-14 -6.99262e-06 0.00820752 0.0700917 0.25 -2.2 0.4 -3.18055e-15 -6.36111e-15 -1.59028e-15 1.13687e-13 -8.3 1 12.0392 -13.6888 0.471668 0 -4.65 0 4.08617 -0.000310553 0.00100022 0 -3.3 0 0.0242067 5.71515e-05 0.000893339 0.5 -2.15 -0.8 -3.18055e-15 -6.36111e-15 -1.59028e-15 -1.13687e-13 -7.75 -0.2 28.9675 -15.1249 1.44331 0 -3.8 -5.68434e-14 -0.102264 0.0314126 0.0038933 0 -3.4 0 -0.0944909 0.00382753 3.15063e-05 0.75 -1.75 -1.85 -3.18055e-15 -6.36111e-15 -1.59028e-15 -1.13687e-13 -7.15 -1 47.1418 -21.8122 5.48042 0 -3 2.84217e-14 0.00297411 0.0681534 -0.0607677 0 -2.35 0 1.018e-05 0.0677904 -0.0086237 8 1.42109e-14 0 25.8519 -45.7636 35.1505 1.13687e-13 -45 -1 2.08705 45.8654 -9.82024 0 -41 -2 -4.43201 3.85617 -12.7285 -5.68434e-14 -7.5 12.5 7.19216e-08 1.38483e-06 4.29848e-08 0 0 4 1.73427 -0.21512 -8.16848 -8 -1.42109e-14 0 2.33892 -43.7577 2.81427 -5.68434e-14 -45 -1 1.26627 69.7505 -2.00899 -5.68434e-14 -41 -2 -3.95908 -2.67075 20.146 0 -7.5 12.5 1.50233e-07 -23.5272 2.18057e-06 0 7.10543e-15 4 7.07908 23.1124 0.467534 
